<svg width="40" height="40" viewBox="0 0 40 40" fill="none" xmlns="http://www.w3.org/2000/svg">
<path d="M20 29C20.5304 29 21.0391 28.7893 21.4142 28.4142C21.7893 28.0391 22 27.5304 22 27H18C18 27.5304 18.2107 28.0391 18.5858 28.4142C18.9609 28.7893 19.4696 29 20 29Z" fill="currentColor"/>
<path d="M26 22V19C25.9981 17.6431 25.5363 16.3268 24.6899 15.2662C23.8436 14.2055 22.6627 13.4631 21.34 13.16C21.4445 12.9556 21.4993 12.7295 21.5 12.5C21.5 12.1022 21.342 11.7206 21.0607 11.4393C20.7794 11.158 20.3978 11 20 11C19.6022 11 19.2206 11.158 18.9393 11.4393C18.658 11.7206 18.5 12.1022 18.5 12.5C18.5007 12.7295 18.5555 12.9556 18.66 13.16C17.3373 13.4631 16.1564 14.2055 15.3101 15.2662C14.4637 16.3268 14.0019 17.6431 14 19V22L12 24V26H28V24L26 22Z" fill="currentColor"/>
</svg>
