<svg width="16" height="16" viewBox="0 0 16 16" fill="none" xmlns="http://www.w3.org/2000/svg">
<path d="M8 14C6.90659 13.998 5.85853 13.5628 5.08537 12.7896C4.31222 12.0165 3.87698 10.9684 3.875 9.875V5C3.875 4.20435 4.19107 3.44129 4.75368 2.87868C5.31629 2.31607 6.07935 2 6.875 2C7.67065 2 8.43371 2.31607 8.99632 2.87868C9.55893 3.44129 9.875 4.20435 9.875 5V9.125C9.875 9.62228 9.67746 10.0992 9.32583 10.4508C8.97419 10.8025 8.49728 11 8 11C7.50272 11 7.02581 10.8025 6.67417 10.4508C6.32254 10.0992 6.125 9.62228 6.125 9.125V5H7.625V9.125C7.625 9.22446 7.66451 9.31984 7.73483 9.39017C7.80516 9.46049 7.90054 9.5 8 9.5C8.09946 9.5 8.19484 9.46049 8.26517 9.39017C8.33549 9.31984 8.375 9.22446 8.375 9.125V5C8.375 4.60218 8.21696 4.22064 7.93566 3.93934C7.65436 3.65804 7.27282 3.5 6.875 3.5C6.47718 3.5 6.09564 3.65804 5.81434 3.93934C5.53304 4.22064 5.375 4.60218 5.375 5V9.875C5.375 10.5712 5.65156 11.2389 6.14384 11.7312C6.63613 12.2234 7.30381 12.5 8 12.5C8.69619 12.5 9.36387 12.2234 9.85616 11.7312C10.3484 11.2389 10.625 10.5712 10.625 9.875V5H12.125V9.875C12.123 10.9684 11.6878 12.0165 10.9146 12.7896C10.1415 13.5628 9.09341 13.998 8 14Z" fill="currentColor"/>
</svg>
