<svg width="24" height="24" viewBox="0 0 24 24" fill="none" xmlns="http://www.w3.org/2000/svg">
<path d="M17 8V7C16.9832 6.45669 16.8593 5.92203 16.6355 5.4267C16.4116 4.93136 16.0922 4.48509 15.6955 4.11347C15.2988 3.74185 14.8326 3.4522 14.3237 3.26113C13.8148 3.07005 13.2733 2.98131 12.73 3H11.27C10.7267 2.98131 10.1852 3.07005 9.67627 3.26113C9.16739 3.4522 8.70123 3.74185 8.30453 4.11347C7.90783 4.48509 7.58839 4.93136 7.36453 5.4267C7.14067 5.92203 7.01679 6.45669 7 7V8H3V21H21V8H17ZM9 7C9.01653 6.71921 9.0885 6.44447 9.21178 6.19164C9.33505 5.93882 9.50718 5.71291 9.71823 5.52697C9.92928 5.34102 10.1751 5.19872 10.4414 5.10827C10.7077 5.01782 10.9894 4.98103 11.27 5H12.73C13.0106 4.98103 13.2923 5.01782 13.5586 5.10827C13.8249 5.19872 14.0707 5.34102 14.2818 5.52697C14.4928 5.71291 14.6649 5.93882 14.7882 6.19164C14.9115 6.44447 14.9835 6.71921 15 7V8H9V7ZM19 19H5V14H7V17H9V14H15V17H17V14H19V19Z" fill="currentColor"/>
</svg>
