<svg width="24" height="24" viewBox="0 0 24 24" fill="none" xmlns="http://www.w3.org/2000/svg">
<path d="M19.9999 7.5C19.9999 4.93 16.5599 3 11.9999 3C7.43986 3 3.99986 4.93 3.99986 7.5C3.98963 7.61644 3.98963 7.73356 3.99986 7.85C3.99516 7.89989 3.99516 7.95011 3.99986 8V17C3.99986 19.8 7.50986 22 11.9999 22C16.4899 22 19.9999 19.8 19.9999 17V8C20.0046 7.95011 20.0046 7.89989 19.9999 7.85C20.0101 7.73356 20.0101 7.61644 19.9999 7.5ZM17.9999 12C17.9999 13.42 15.5399 15 11.9999 15C8.45986 15 5.99986 13.42 5.99986 12V10.53C7.8276 11.56 9.90301 12.0684 11.9999 12C14.0967 12.0684 16.1721 11.56 17.9999 10.53V12ZM11.9999 20C8.45986 20 5.99986 18.42 5.99986 17V15.33C7.78546 16.4795 9.87714 17.0617 11.9999 17C14.1226 17.0617 16.2143 16.4795 17.9999 15.33V17C17.9999 18.42 15.5399 20 11.9999 20Z" fill="currentColor"/>
</svg>
