<svg width="24" height="24" viewBox="0 0 24 24" fill="none" xmlns="http://www.w3.org/2000/svg">
<path d="M12.5 6C10.5735 6.02783 8.68678 6.54871 7.0225 7.51224C5.35823 8.47577 3.9727 9.84932 3 11.5C3.9727 13.1507 5.35823 14.5242 7.0225 15.4878C8.68678 16.4513 10.5735 16.9722 12.5 17C14.4265 16.9722 16.3132 16.4513 17.9775 15.4878C19.6418 14.5242 21.0273 13.1507 22 11.5C21.0273 9.84932 19.6418 8.47577 17.9775 7.51224C16.3132 6.54871 14.4265 6.02783 12.5 6ZM12.5 14.6429C11.8737 14.6429 11.2615 14.4585 10.7407 14.1132C10.2199 13.7678 9.81406 13.277 9.57438 12.7027C9.3347 12.1284 9.27199 11.4965 9.39418 10.8869C9.51637 10.2772 9.81796 9.7172 10.2608 9.27766C10.7037 8.83813 11.2679 8.5388 11.8822 8.41753C12.4965 8.29626 13.1332 8.3585 13.7118 8.59638C14.2905 8.83425 14.785 9.23708 15.133 9.75392C15.4809 10.2708 15.6667 10.8784 15.6667 11.5C15.6667 12.3335 15.333 13.1329 14.7392 13.7223C14.1453 14.3117 13.3399 14.6429 12.5 14.6429Z" fill="currentColor"/>
</svg>
