<svg width="24" height="24" viewBox="0 0 24 24" fill="none" xmlns="http://www.w3.org/2000/svg">
<path fill-rule="evenodd" clip-rule="evenodd" d="M20.8119 2.0398C21.0693 2.14651 21.3031 2.3029 21.5 2.50004C21.6971 2.69694 21.8535 2.93076 21.9602 3.18814C22.0669 3.44553 22.1219 3.72142 22.1219 4.00004C22.1219 4.27867 22.0669 4.55456 21.9602 4.81194C21.8535 5.06932 21.6971 5.30315 21.5 5.50004L21.09 5.91004L21 6.00004L20.65 6.39004C20.8771 6.89661 20.9963 7.4449 21 8.00004V15C21 16.0609 20.5786 17.0783 19.8284 17.8285C19.0783 18.5786 18.0609 19 17 19H12L7 22V19C5.93913 19 4.92172 18.5786 4.17157 17.8285C3.42143 17.0783 3 16.0609 3 15V8.00004C3 6.93918 3.42143 5.92176 4.17157 5.17161C4.92172 4.42147 5.93913 4.00004 7 4.00004H15L13 6.00004H7C6.46957 6.00004 5.96086 6.21075 5.58579 6.58583C5.21071 6.9609 5 7.46961 5 8.00004V15C5 15.5305 5.21071 16.0392 5.58579 16.4143C5.96086 16.7893 6.46957 17 7 17H17C17.5304 17 18.0391 16.7893 18.4142 16.4143C18.7893 16.0392 19 15.5305 19 15V8.00004L16 11L13 8.00004L17 4.00004L18 3.00004L18.09 2.91004L18.5 2.50004C18.6969 2.3029 18.9307 2.14651 19.1881 2.0398C19.4455 1.9331 19.7214 1.87817 20 1.87817C20.2786 1.87817 20.5545 1.9331 20.8119 2.0398ZM15 12L10 14L12 9.00005L15 12Z" fill="currentColor"/>
</svg>
