<svg width="24" height="24" viewBox="0 0 24 24" fill="none" xmlns="http://www.w3.org/2000/svg">
<circle cx="12" cy="12" r="8.5" stroke="currentColor"/>
<path d="M11.0238 14.0639L13.3402 13.4717C13.2009 13.3324 13.0789 13.0711 13.0789 12.775C13.0789 11.4688 15.7785 11.2772 15.7785 8.78665C15.7785 7.11466 14.3504 6 12.0514 6C10.6232 6 9.17764 6.55733 8.21973 7.63716L9.89171 9.55298C10.3794 8.99565 11.0586 8.64732 11.7205 8.64732C12.4694 8.64732 12.748 8.9434 12.748 9.32656C12.748 10.1974 10.4839 10.4935 10.4839 12.4615C10.4839 13.1234 10.6929 13.6633 11.0238 14.0639ZM12.0862 18C12.9744 18 13.7234 17.2511 13.7234 16.3628C13.7234 15.4746 12.9744 14.7257 12.0862 14.7257C11.198 14.7257 10.449 15.4746 10.449 16.3628C10.449 17.2511 11.198 18 12.0862 18Z" fill="currentColor"/>
</svg>
