<svg width="40" height="40" viewBox="0 0 40 40" fill="none" xmlns="http://www.w3.org/2000/svg">
<path d="M26 13H21V11H19V13H14L10 21C10.0184 22.0432 10.4499 23.0366 11.1998 23.7621C11.9497 24.4876 12.9567 24.8861 14 24.87C15.0433 24.8861 16.0503 24.4876 16.8002 23.7621C17.5501 23.0366 17.9816 22.0432 18 21L15 15H19V27H14V29H26V27H21V15H25L22 21C22 22.0609 22.4214 23.0783 23.1716 23.8284C23.9217 24.5786 24.9391 25 26 25C27.0609 25 28.0783 24.5786 28.8284 23.8284C29.5786 23.0783 30 22.0609 30 21L26 13ZM16 21H12L14 17L16 21ZM24 21L26 17L28 21H24Z" fill="currentColor"/>
</svg>
