<svg width="135" height="48" viewBox="0 0 135 48" fill="none" xmlns="http://www.w3.org/2000/svg">
<path d="M89.9495 23.5985C89.3891 23.5985 88.8452 23.5273 88.3179 23.3847C87.7905 23.2423 87.3621 23.0523 87.0324 22.8148L87.6751 21.3281C87.985 21.5385 88.3443 21.7083 88.753 21.8373C89.1617 21.9662 89.5638 22.0307 89.9593 22.0307C90.7108 22.0307 91.0866 21.8373 91.0866 21.4504C91.0866 21.2468 90.9777 21.0974 90.7603 21.0025C90.5493 20.9006 90.2065 20.7955 89.7319 20.6868C89.2111 20.5713 88.776 20.4493 88.4266 20.3202C88.0772 20.1844 87.7773 19.9707 87.5269 19.6789C87.2763 19.3871 87.1511 18.9934 87.1511 18.4978C87.1511 18.0635 87.2664 17.6732 87.4971 17.327C87.728 16.9741 88.0706 16.6958 88.5256 16.4922C88.987 16.2885 89.5506 16.1868 90.2163 16.1868C90.6713 16.1868 91.1195 16.2411 91.5612 16.3497C92.0027 16.4515 92.3918 16.6041 92.728 16.8078L92.1247 18.3044C91.4656 17.9378 90.826 17.7545 90.2065 17.7545C89.8176 17.7545 89.5341 17.8158 89.3561 17.9378C89.1781 18.0533 89.0893 18.206 89.0893 18.3962C89.0893 18.5862 89.1946 18.7286 89.4056 18.8237C89.6165 18.9186 89.956 19.0172 90.424 19.1188C90.9514 19.2343 91.3864 19.3598 91.7293 19.4956C92.0786 19.6246 92.3789 19.835 92.6292 20.1268C92.886 20.412 93.0144 20.8022 93.0144 21.2977C93.0144 21.7252 92.8989 22.1122 92.6689 22.4584C92.438 22.8044 92.0919 23.0828 91.6304 23.2932C91.1689 23.4968 90.6086 23.5985 89.9495 23.5985Z" fill="#FF8000"/>
<path d="M100.811 17.8464C101.471 17.8464 101.994 18.0501 102.383 18.4573C102.779 18.8645 102.976 19.4788 102.976 20.3001V23.4562H101.097V20.6158C101.097 20.2288 101.025 19.9437 100.88 19.7604C100.742 19.5771 100.544 19.4855 100.287 19.4855C100.004 19.4855 99.7764 19.5875 99.6045 19.7911C99.4336 19.9947 99.3477 20.3034 99.3477 20.7174V23.4562H97.4688V20.6158C97.4688 19.8623 97.1981 19.4855 96.6577 19.4855C96.3677 19.4855 96.1376 19.5875 95.9658 19.7911C95.794 19.9947 95.709 20.3034 95.709 20.7174V23.4562H93.8301V17.9379H95.6194V18.5183C95.8171 18.2943 96.0517 18.1281 96.3215 18.0195C96.5986 17.9041 96.8988 17.8464 97.2221 17.8464C97.5972 17.8464 97.9334 17.9177 98.23 18.0603C98.5265 18.2028 98.7676 18.42 98.9524 18.7118C99.163 18.4336 99.4299 18.2198 99.7533 18.0704C100.076 17.921 100.429 17.8464 100.811 17.8464Z" fill="#FF8000"/>
<path d="M106.447 17.8464C107.336 17.8464 108.015 18.0568 108.484 18.4776C108.952 18.8916 109.186 19.5297 109.186 20.3918V23.4562H107.435V22.7435C107.165 23.2798 106.638 23.5478 105.854 23.5478C105.438 23.5478 105.079 23.4732 104.776 23.3238C104.473 23.1744 104.242 22.9742 104.083 22.7231C103.931 22.4652 103.856 22.1733 103.856 21.8477C103.856 21.3249 104.051 20.9211 104.44 20.6361C104.828 20.3441 105.428 20.1983 106.239 20.1983H107.307C107.274 19.6146 106.895 19.3226 106.17 19.3226C105.913 19.3226 105.652 19.3667 105.388 19.4551C105.125 19.5364 104.901 19.6519 104.716 19.8013L104.083 18.4878C104.379 18.2841 104.739 18.1281 105.161 18.0195C105.59 17.9041 106.018 17.8464 106.447 17.8464ZM106.378 22.3261C106.595 22.3261 106.786 22.2718 106.951 22.1632C107.116 22.0546 107.235 21.8951 107.307 21.6846V21.2062H106.496C105.949 21.2062 105.676 21.3927 105.676 21.7661C105.676 21.9357 105.738 22.0716 105.863 22.1733C105.989 22.2752 106.16 22.3261 106.378 22.3261Z" fill="#FF8000"/>
<path d="M112.161 18.5999C112.352 18.3486 112.6 18.1619 112.903 18.0399C113.212 17.9108 113.565 17.8464 113.961 17.8464V19.5875C113.79 19.5669 113.648 19.5568 113.536 19.5568C113.133 19.5568 112.817 19.6688 112.586 19.8928C112.362 20.1168 112.25 20.4596 112.25 20.9211V23.4562H110.371V17.9379H112.161V18.5999Z" fill="#FF8000"/>
<path d="M95.912 29.1735C96.1032 28.9222 96.3508 28.7355 96.6538 28.6135C96.9632 28.4844 97.3161 28.42 97.7115 28.42V30.1611C97.5406 30.1405 97.3983 30.1303 97.2865 30.1303C96.8838 30.1303 96.5678 30.2424 96.3369 30.4664C96.1124 30.6904 96.0007 31.0331 96.0007 31.4946V34.0298H94.1217V28.5115H95.912V29.1735Z" fill="#FF8000"/>
<path d="M118.598 23.232C118.44 23.3337 118.246 23.4117 118.015 23.4661C117.791 23.5204 117.551 23.5475 117.293 23.5475C116.595 23.5475 116.057 23.371 115.682 23.0182C115.306 22.6652 115.118 22.1391 115.118 21.4401V19.5872H114.337V18.1413H115.118V16.7058H116.996V18.1413H118.223V19.5872H116.996V21.4197C116.996 21.6166 117.046 21.7725 117.145 21.888C117.25 21.9965 117.389 22.0509 117.56 22.0509C117.778 22.0509 117.969 21.9931 118.134 21.8778L118.598 23.232Z" fill="#FF8000"/>
<path d="M90.1841 26.8992C90.8103 26.8992 91.3542 27.0079 91.8157 27.225C92.2772 27.4354 92.6329 27.7409 92.8832 28.1414C93.1345 28.5349 93.2592 28.9999 93.2592 29.536C93.2592 30.0723 93.1345 30.5372 92.8832 30.9308C92.6329 31.3245 92.2772 31.6301 91.8157 31.8473C91.3542 32.0577 90.8103 32.1628 90.1841 32.1628H88.9778V34.026H87.02V26.8992H90.1841ZM90.0654 30.5746C90.4675 30.5746 90.7709 30.4864 90.9752 30.3098C91.1795 30.1266 91.2818 29.8687 91.2818 29.536C91.2818 29.2036 91.1795 28.9457 90.9752 28.7624C90.7709 28.5792 90.4675 28.4875 90.0654 28.4875H88.9778V30.5746H90.0654Z" fill="#FF8000"/>
<path d="M101.147 34.1173C100.573 34.1173 100.056 33.9953 99.5951 33.7508C99.1332 33.5065 98.7711 33.167 98.5069 32.7327C98.2501 32.2984 98.1217 31.8063 98.1217 31.2565C98.1217 30.7135 98.2501 30.2249 98.5069 29.7905C98.7711 29.3561 99.1305 29.0201 99.5849 28.7826C100.047 28.538 100.567 28.416 101.147 28.416C101.727 28.416 102.248 28.538 102.709 28.7826C103.171 29.0201 103.53 29.3561 103.787 29.7905C104.045 30.218 104.173 30.7066 104.173 31.2565C104.173 31.8063 104.045 32.2984 103.787 32.7327C103.53 33.167 103.171 33.5065 102.709 33.7508C102.248 33.9953 101.727 34.1173 101.147 34.1173ZM101.147 32.5801C101.477 32.5801 101.747 32.4646 101.958 32.2339C102.169 31.9964 102.274 31.6705 102.274 31.2565C102.274 30.8493 102.169 30.5302 101.958 30.2995C101.747 30.0687 101.477 29.9534 101.147 29.9534C100.817 29.9534 100.548 30.0687 100.336 30.2995C100.125 30.5302 100.02 30.8493 100.02 31.2565C100.02 31.6705 100.125 31.9964 100.336 32.2339C100.548 32.4646 100.817 32.5801 101.147 32.5801Z" fill="#FF8000"/>
<path fill-rule="evenodd" clip-rule="evenodd" d="M78.2 15.8457H80.0215V34.026C80.0215 34.0262 80.0215 34.0262 79.1108 34.0262C78.2 34.0262 78.2 34.0262 78.2 34.026V15.8457Z" fill="#FF8000"/>
<path d="M23.4855 22.0476C23.0354 21.6489 22.5423 21.3327 22.0252 21.0968C22.2282 20.9228 22.4202 20.7314 22.5991 20.5208C24.4225 18.3737 24.197 15.1226 22.0952 13.2599C21.1403 12.4138 19.9639 12 18.7929 12.0008L11.6547 12V33.8761H25.5111V26.6286C25.5228 24.9342 24.8362 23.2455 23.4855 22.0476ZM22.5719 32.1604H20.0525V24.8683H17.1133V32.1604H14.5939V13.7158H17.5331C19.0985 13.7158 20.4133 14.8096 20.7865 16.2894H17.9531V18.0052H20.785C20.4125 19.4843 19.1 20.5772 17.5363 20.5789H17.5301H16.2735V22.2946H18.3729C19.3488 22.2939 20.3294 22.6394 21.1248 23.344C22.0812 24.1916 22.5703 25.3847 22.5711 26.584H22.5726L22.5719 32.1604Z" fill="#002D6E"/>
<path d="M38.1344 19.5843C38.5544 19.7238 38.8728 19.94 39.0896 20.233C39.3131 20.5259 39.4249 20.8886 39.4249 21.3211C39.4249 21.9698 39.1776 22.4824 38.6831 22.8591C38.1954 23.2288 37.501 23.4136 36.6 23.4136H32.9521V16.0898H36.407C37.2605 16.0898 37.921 16.2572 38.3884 16.592C38.8626 16.9198 39.0997 17.3872 39.0997 17.994C39.0997 18.3497 39.015 18.6636 38.8457 18.9356C38.6831 19.2077 38.446 19.4239 38.1344 19.5843ZM34.9336 19.0193H36.2139C36.7829 19.0193 37.0675 18.7787 37.0675 18.2974C37.0675 17.8162 36.7829 17.5755 36.2139 17.5755H34.9336V19.0193ZM36.5187 21.9279C37.1014 21.9279 37.3926 21.6733 37.3926 21.1641C37.3926 20.6689 37.1014 20.4213 36.5187 20.4213H34.9336V21.9279H36.5187Z" fill="#002D6E"/>
<path d="M43.5518 19.5007C44.2766 19.5076 44.8219 19.675 45.1878 20.0029C45.5536 20.3307 45.7365 20.798 45.7365 21.4049C45.7365 22.0395 45.5231 22.5348 45.0963 22.8905C44.6764 23.2463 44.0802 23.4206 43.3079 23.4137H40.4017V17.743H42.3222V19.5007H43.5518ZM46.2039 17.743H48.1244V23.4137H46.2039V17.743ZM43.1148 22.0535C43.6026 22.0535 43.8465 21.8269 43.8465 21.3735C43.8465 21.1502 43.7855 20.9864 43.6635 20.8817C43.5416 20.7771 43.3587 20.7213 43.1148 20.7143H42.3222V22.0431L43.1148 22.0535Z" fill="#002D6E"/>
<path d="M58.1607 17.743V23.4136H49.432V17.743H51.3525V21.8233H52.8462V17.743H54.7667V21.8233H56.2503V17.743H58.1607Z" fill="#002D6E"/>
<path d="M62.0454 21.3944H61.3951V23.4136H59.4644V17.743H61.3951V19.8355H62.0861L63.4375 17.743H65.48L63.6306 20.4632L65.6019 23.4136H63.3258L62.0454 21.3944Z" fill="#002D6E"/>
<path d="M68.3884 17.649C69.303 17.649 70.0007 17.8652 70.4817 18.2976C70.9626 18.7231 71.2031 19.3788 71.2031 20.2646V23.4138H69.4046V22.6814C69.1268 23.2324 68.5848 23.508 67.7787 23.508C67.352 23.508 66.9827 23.4312 66.6711 23.2778C66.3595 23.1244 66.1224 22.9185 65.9598 22.6605C65.804 22.3954 65.7261 22.0955 65.7261 21.7607C65.7261 21.2236 65.9259 20.8086 66.3257 20.5157C66.7253 20.2158 67.3418 20.0658 68.175 20.0658H69.2725C69.2386 19.4659 68.849 19.166 68.1039 19.166C67.8397 19.166 67.5721 19.2114 67.3012 19.302C67.0301 19.3857 66.7998 19.5044 66.6102 19.6578L65.9598 18.3081C66.2647 18.0989 66.6338 17.9384 67.0674 17.8268C67.5077 17.7082 67.9481 17.649 68.3884 17.649ZM68.3173 22.2525C68.5408 22.2525 68.7372 22.1966 68.9067 22.0851C69.076 21.9735 69.1979 21.8095 69.2725 21.5933V21.1016H68.4392C67.8769 21.1016 67.5958 21.2934 67.5958 21.677C67.5958 21.8514 67.6601 21.9909 67.7889 22.0955C67.9176 22.2002 68.0937 22.2525 68.3173 22.2525Z" fill="#002D6E"/>
<path d="M32.9012 26.5523H36.2647C37.0437 26.5523 37.7347 26.7023 38.3376 27.0022C38.9405 27.3021 39.408 27.7276 39.7399 28.2786C40.0718 28.8296 40.2378 29.4748 40.2378 30.2142C40.2378 30.9535 40.0718 31.5987 39.7399 32.1497C39.408 32.7007 38.9405 33.1263 38.3376 33.4261C37.7347 33.726 37.0437 33.876 36.2647 33.876H32.9012V26.5523ZM36.1834 32.223C36.7931 32.223 37.2808 32.0451 37.6466 31.6894C38.0192 31.3336 38.2055 30.8419 38.2055 30.2142C38.2055 29.5864 38.0192 29.0947 37.6466 28.739C37.2808 28.3832 36.7931 28.2054 36.1834 28.2054H34.9132V32.223H36.1834Z" fill="#002D6E"/>
<path d="M41.2049 28.2052H43.1356V33.8759H41.2049V28.2052ZM42.1702 27.5775C41.818 27.5775 41.5335 27.4764 41.3167 27.2741C41.0999 27.0718 40.9915 26.8207 40.9915 26.5208C40.9915 26.2209 41.0999 25.9698 41.3167 25.7675C41.5335 25.5652 41.818 25.4641 42.1702 25.4641C42.5225 25.4641 42.807 25.5617 43.0238 25.757C43.2406 25.9453 43.349 26.1895 43.349 26.4894C43.349 26.8032 43.2406 27.0648 43.0238 27.2741C42.807 27.4764 42.5225 27.5775 42.1702 27.5775Z" fill="#002D6E"/>
<path d="M50.3143 28.2053V32.8402C50.3143 33.8934 50.0366 34.6816 49.481 35.2047C48.9256 35.7348 48.1262 35.9999 47.0829 35.9999C46.5411 35.9999 46.033 35.9371 45.5587 35.8115C45.0846 35.686 44.6815 35.5012 44.3495 35.257L45.0507 33.8655C45.2742 34.0538 45.5554 34.2003 45.8941 34.3049C46.2395 34.4165 46.5783 34.4723 46.9102 34.4723C47.4183 34.4723 47.7909 34.3573 48.028 34.1271C48.2651 33.8969 48.3836 33.5552 48.3836 33.1018V32.9134C48.0111 33.3598 47.4658 33.583 46.7476 33.583C46.2599 33.583 45.8094 33.4715 45.3961 33.2482C44.9829 33.0181 44.6544 32.6972 44.4105 32.2857C44.1666 31.8672 44.0447 31.3859 44.0447 30.8419C44.0447 30.3047 44.1666 29.8305 44.4105 29.419C44.6544 29.0005 44.9829 28.6796 45.3961 28.4564C45.8094 28.2262 46.2599 28.1111 46.7476 28.1111C47.5335 28.1111 48.1092 28.3727 48.4751 28.8958V28.2053H50.3143ZM47.2049 32.0032C47.5504 32.0032 47.8349 31.895 48.0584 31.6789C48.2888 31.4627 48.4039 31.1836 48.4039 30.8419C48.4039 30.5001 48.2922 30.2246 48.0686 30.0153C47.8451 29.7991 47.5572 29.691 47.2049 29.691C46.8526 29.691 46.5614 29.7991 46.331 30.0153C46.1074 30.2246 45.9957 30.5001 45.9957 30.8419C45.9957 31.1836 46.1109 31.4627 46.3412 31.6789C46.5715 31.895 46.8594 32.0032 47.2049 32.0032Z" fill="#002D6E"/>
<path d="M51.5548 28.2052H53.4855V33.8759H51.5548V28.2052ZM52.5202 27.5775C52.1679 27.5775 51.8834 27.4764 51.6666 27.2741C51.4498 27.0718 51.3414 26.8207 51.3414 26.5208C51.3414 26.2209 51.4498 25.9698 51.6666 25.7675C51.8834 25.5652 52.1679 25.4641 52.5202 25.4641C52.8724 25.4641 53.1569 25.5617 53.3737 25.757C53.5905 25.9453 53.6989 26.1895 53.6989 26.4894C53.6989 26.8032 53.5905 27.0648 53.3737 27.2741C53.1569 27.4764 52.8724 27.5775 52.5202 27.5775Z" fill="#002D6E"/>
<path d="M58.5405 33.646C58.3779 33.7506 58.1781 33.8308 57.941 33.8866C57.7107 33.9425 57.4634 33.9703 57.1992 33.9703C56.4812 33.9703 55.929 33.789 55.5429 33.4263C55.1568 33.0636 54.9637 32.523 54.9637 31.8046V29.9004H54.1609V28.4148H54.9637V26.9395H56.8944V28.4148H58.1544V29.9004H56.8944V31.7837C56.8944 31.986 56.9452 32.1463 57.0468 32.265C57.1552 32.3765 57.2975 32.4324 57.4736 32.4324C57.6971 32.4324 57.8936 32.3731 58.0629 32.2545L58.5405 33.646Z" fill="#002D6E"/>
<path d="M61.6324 28.1111C62.5469 28.1111 63.2446 28.3273 63.7256 28.7598C64.2065 29.1853 64.4471 29.841 64.4471 30.7268V33.876H62.6485V33.1436C62.3707 33.6946 61.8288 33.9701 61.0227 33.9701C60.5959 33.9701 60.2267 33.8934 59.9151 33.74C59.6034 33.5865 59.3664 33.3807 59.2038 33.1227C59.048 32.8576 58.9701 32.5577 58.9701 32.2229C58.9701 31.6858 59.1699 31.2708 59.5696 30.9779C59.9692 30.678 60.5858 30.528 61.419 30.528H62.5164C62.4825 29.9281 62.093 29.6282 61.3479 29.6282C61.0837 29.6282 60.8161 29.6736 60.5451 29.7642C60.2741 29.8479 60.0438 29.9665 59.8541 30.1199L59.2038 28.7703C59.5086 28.561 59.8778 28.4006 60.3114 28.289C60.7517 28.1704 61.192 28.1111 61.6324 28.1111ZM61.5613 32.7146C61.7848 32.7146 61.9812 32.6588 62.1506 32.5472C62.3199 32.4357 62.4419 32.2717 62.5164 32.0555V31.5638H61.6832C61.1209 31.5638 60.8398 31.7556 60.8398 32.1392C60.8398 32.3135 60.9041 32.4531 61.0329 32.5577C61.1615 32.6623 61.3377 32.7146 61.5613 32.7146Z" fill="#002D6E"/>
<path d="M65.6657 26.1128H67.5964V33.876H65.6657V26.1128Z" fill="#002D6E"/>
</svg>
