<svg width="135" height="48" viewBox="0 0 135 48" fill="none" xmlns="http://www.w3.org/2000/svg">
<path d="M88.3495 23.6028C87.7891 23.6028 87.2452 23.5316 86.7179 23.389C86.1905 23.2466 85.7621 23.0566 85.4324 22.8191L86.0751 21.3324C86.385 21.5428 86.7443 21.7126 87.153 21.8416C87.5617 21.9705 87.9638 22.035 88.3592 22.035C89.1108 22.035 89.4866 21.8416 89.4866 21.4548C89.4866 21.2511 89.3777 21.1017 89.1602 21.0068C88.9493 20.9049 88.6064 20.7998 88.1319 20.6911C87.6111 20.5756 87.176 20.4536 86.8266 20.3245C86.4772 20.1887 86.1773 19.975 85.9269 19.6832C85.6763 19.3914 85.5511 18.9977 85.5511 18.5021C85.5511 18.0678 85.6664 17.6775 85.8971 17.3313C86.128 16.9784 86.4706 16.7001 86.9256 16.4965C87.387 16.2928 87.9506 16.1911 88.6163 16.1911C89.0713 16.1911 89.5195 16.2454 89.9611 16.354C90.4027 16.4558 90.7918 16.6084 91.128 16.8121L90.5247 18.3087C89.8656 17.9421 89.226 17.7588 88.6064 17.7588C88.2175 17.7588 87.9341 17.8201 87.7561 17.9421C87.5781 18.0576 87.4892 18.2103 87.4892 18.4005C87.4892 18.5905 87.5946 18.7329 87.8055 18.828C88.0164 18.9229 88.356 19.0215 88.824 19.1231C89.3514 19.2386 89.7864 19.3641 90.1293 19.4999C90.4786 19.629 90.7789 19.8393 91.0292 20.1311C91.286 20.4163 91.4144 20.8066 91.4144 21.302C91.4144 21.7295 91.2989 22.1165 91.0689 22.4627C90.838 22.8087 90.4918 23.0871 90.0304 23.2975C89.5689 23.5011 89.0086 23.6028 88.3495 23.6028Z" fill="#FF8000"/>
<path d="M99.211 17.8507C99.8705 17.8507 100.394 18.0544 100.783 18.4616C101.179 18.8688 101.376 19.4831 101.376 20.3044V23.4605H99.4973V20.6201C99.4973 20.2331 99.4253 19.948 99.2802 19.7647C99.1417 19.5814 98.944 19.4898 98.6872 19.4898C98.4036 19.4898 98.1763 19.5918 98.0045 19.7954C97.8336 19.999 97.7477 20.3077 97.7477 20.7217V23.4605H95.8688V20.6201C95.8688 19.8666 95.5981 19.4898 95.0577 19.4898C94.7677 19.4898 94.5376 19.5918 94.3658 19.7954C94.194 19.999 94.109 20.3077 94.109 20.7217V23.4605H92.2301V17.9422H94.0194V18.5226C94.2171 18.2986 94.4517 18.1324 94.7215 18.0238C94.9986 17.9084 95.2988 17.8507 95.6221 17.8507C95.9972 17.8507 96.3334 17.922 96.63 18.0646C96.9265 18.2071 97.1676 18.4243 97.3523 18.7161C97.563 18.4379 97.8299 18.2241 98.1533 18.0747C98.4756 17.9253 98.8285 17.8507 99.211 17.8507Z" fill="#FF8000"/>
<path d="M104.847 17.8507C105.736 17.8507 106.415 18.0611 106.884 18.4819C107.352 18.8959 107.586 19.534 107.586 20.3961V23.4605H105.835V22.7478C105.565 23.2841 105.038 23.5521 104.254 23.5521C103.838 23.5521 103.479 23.4775 103.176 23.3281C102.873 23.1787 102.642 22.9785 102.483 22.7274C102.331 22.4695 102.256 22.1776 102.256 21.852C102.256 21.3292 102.451 20.9254 102.84 20.6404C103.228 20.3484 103.828 20.2026 104.639 20.2026H105.707C105.674 19.6189 105.295 19.3269 104.57 19.3269C104.313 19.3269 104.052 19.371 103.788 19.4594C103.525 19.5407 103.3 19.6562 103.116 19.8056L102.483 18.4921C102.779 18.2885 103.139 18.1324 103.561 18.0238C103.99 17.9084 104.418 17.8507 104.847 17.8507ZM104.778 22.3304C104.995 22.3304 105.186 22.2761 105.351 22.1675C105.516 22.0589 105.635 21.8994 105.707 21.689V21.2105H104.896C104.349 21.2105 104.076 21.397 104.076 21.7704C104.076 21.9401 104.138 22.0759 104.263 22.1776C104.389 22.2795 104.56 22.3304 104.778 22.3304Z" fill="#FF8000"/>
<path d="M110.561 18.6042C110.752 18.3529 111 18.1662 111.303 18.0442C111.613 17.9151 111.965 17.8507 112.361 17.8507V19.5918C112.19 19.5712 112.048 19.5611 111.936 19.5611C111.533 19.5611 111.217 19.6731 110.986 19.8971C110.762 20.1211 110.65 20.4639 110.65 20.9254V23.4605H108.771V17.9422H110.561V18.6042Z" fill="#FF8000"/>
<path d="M94.312 29.1778C94.5032 28.9265 94.7508 28.7398 95.0538 28.6178C95.3632 28.4887 95.7161 28.4243 96.1115 28.4243V30.1654C95.9406 30.1448 95.7983 30.1346 95.6866 30.1346C95.2838 30.1346 94.9679 30.2467 94.7369 30.4707C94.5124 30.6947 94.4007 31.0374 94.4007 31.4989V34.0341H92.5217V28.5158H94.312V29.1778Z" fill="#FF8000"/>
<path d="M116.998 23.2363C116.84 23.338 116.646 23.416 116.415 23.4704C116.191 23.5247 115.951 23.5518 115.693 23.5518C114.995 23.5518 114.457 23.3753 114.082 23.0225C113.706 22.6695 113.518 22.1434 113.518 21.4444V19.5915H112.737V18.1456H113.518V16.7101H115.396V18.1456H116.623V19.5915H115.396V21.424C115.396 21.6209 115.446 21.7768 115.545 21.8923C115.65 22.0008 115.789 22.0552 115.96 22.0552C116.178 22.0552 116.369 21.9974 116.534 21.8821L116.998 23.2363Z" fill="#FF8000"/>
<path d="M88.5841 26.9035C89.2103 26.9035 89.7542 27.0122 90.2156 27.2293C90.6772 27.4397 91.0329 27.7452 91.2832 28.1457C91.5345 28.5392 91.6592 29.0042 91.6592 29.5403C91.6592 30.0766 91.5345 30.5415 91.2832 30.9351C91.0329 31.3288 90.6772 31.6344 90.2156 31.8516C89.7542 32.062 89.2103 32.1671 88.5841 32.1671H87.3778V34.0303H85.42V26.9035H88.5841ZM88.4654 30.5789C88.8675 30.5789 89.1709 30.4907 89.3752 30.3141C89.5795 30.1309 89.6818 29.873 89.6818 29.5403C89.6818 29.2079 89.5795 28.95 89.3752 28.7667C89.1709 28.5835 88.8675 28.4918 88.4654 28.4918H87.3778V30.5789H88.4654Z" fill="#FF8000"/>
<path d="M99.5471 34.1216C98.9734 34.1216 98.4561 33.9996 97.9951 33.7551C97.5333 33.5108 97.1711 33.1713 96.9069 32.737C96.6501 32.3027 96.5217 31.8106 96.5217 31.2608C96.5217 30.7178 96.6501 30.2292 96.9069 29.7948C97.1711 29.3604 97.5305 29.0244 97.985 28.7869C98.4469 28.5423 98.9669 28.4203 99.5471 28.4203C100.127 28.4203 100.648 28.5423 101.109 28.7869C101.571 29.0244 101.93 29.3604 102.187 29.7948C102.445 30.2223 102.573 30.7109 102.573 31.2608C102.573 31.8106 102.445 32.3027 102.187 32.737C101.93 33.1713 101.571 33.5108 101.109 33.7551C100.648 33.9996 100.127 34.1216 99.5471 34.1216ZM99.5471 32.5844C99.8768 32.5844 100.147 32.4689 100.358 32.2382C100.569 32.0007 100.674 31.6748 100.674 31.2608C100.674 30.8536 100.569 30.5345 100.358 30.3038C100.147 30.073 99.8768 29.9577 99.5471 29.9577C99.2173 29.9577 98.9475 30.073 98.736 30.3038C98.5254 30.5345 98.4201 30.8536 98.4201 31.2608C98.4201 31.6748 98.5254 32.0007 98.736 32.2382C98.9475 32.4689 99.2173 32.5844 99.5471 32.5844Z" fill="#FF8000"/>
<path fill-rule="evenodd" clip-rule="evenodd" d="M76.6 15.85H78.4215V34.0303C78.4215 34.0305 78.4215 34.0305 77.5107 34.0305C76.6 34.0305 76.6 34.0305 76.6 34.0303V15.85Z" fill="#FF8000"/>
<path d="M24.1814 22.0476C23.7179 21.6489 23.2103 21.3327 22.6778 21.0968C22.8868 20.9228 23.0845 20.7314 23.2687 20.5208C25.1461 18.3737 24.9139 15.1226 22.7499 13.2599C21.7667 12.4138 20.5555 12 19.3497 12.0008L12 12V33.8761H26.267V26.6286C26.279 24.9342 25.5721 23.2455 24.1814 22.0476ZM23.2407 32.1604H20.6467V24.8683H17.6204V32.1604H15.0263V13.7158H18.0526C19.6643 13.7158 21.0182 14.8096 21.4024 16.2894H18.485V18.0052H21.4008C21.0173 19.4843 19.666 20.5772 18.0559 20.5789H18.0495H16.7557V22.2946H18.9173C19.9221 22.2939 20.9317 22.6394 21.7508 23.344C22.7355 24.1916 23.2391 25.3847 23.2399 26.584H23.2415L23.2407 32.1604Z" fill="#002D6E"/>
<path d="M40.8441 16.0898V23.4136H38.7725V20.5573H35.9477V23.4136H33.8761V16.0898H35.9477V18.8415H38.7725V16.0898H40.8441Z" fill="#002D6E"/>
<path d="M44.8791 23.56C44.2863 23.56 43.7108 23.4868 43.1528 23.3403C42.5948 23.1939 42.1414 22.9986 41.7927 22.7544L42.4727 21.2269C42.8006 21.4431 43.1807 21.6175 43.6131 21.75C44.0456 21.8825 44.4711 21.9488 44.8896 21.9488C45.6847 21.9488 46.0823 21.75 46.0823 21.3525C46.0823 21.1432 45.9672 20.9898 45.737 20.8921C45.5138 20.7875 45.1511 20.6793 44.6489 20.5678C44.0979 20.4492 43.6376 20.3236 43.2679 20.1911C42.8982 20.0516 42.5809 19.8319 42.3158 19.532C42.0507 19.2321 41.9182 18.8275 41.9182 18.3183C41.9182 17.872 42.0402 17.4709 42.2844 17.1152C42.5286 16.7525 42.8912 16.4665 43.3725 16.2572C43.8607 16.048 44.4571 15.9434 45.1616 15.9434C45.6429 15.9434 46.1172 15.9992 46.5845 16.1108C47.0518 16.2154 47.4633 16.3723 47.8191 16.5816L47.1809 18.1196C46.4834 17.7429 45.8067 17.5546 45.1511 17.5546C44.7396 17.5546 44.4397 17.6174 44.2514 17.7429C44.063 17.8615 43.9689 18.0185 43.9689 18.2137C43.9689 18.409 44.0804 18.5555 44.3037 18.6531C44.5269 18.7508 44.886 18.8519 45.3813 18.9566C45.9393 19.0752 46.3997 19.2041 46.7624 19.3437C47.1321 19.4762 47.4494 19.6924 47.7144 19.9923C47.9865 20.2853 48.1225 20.6864 48.1225 21.1955C48.1225 21.635 48.0004 22.0325 47.7563 22.3883C47.5121 22.744 47.1459 23.03 46.6577 23.2462C46.1695 23.4554 45.5766 23.56 44.8791 23.56Z" fill="#002D6E"/>
<path d="M54.9594 21.8128V23.4136H49.0795V16.0898H54.8234V17.6906H51.1301V18.9252H54.384V20.4736H51.1301V21.8128H54.9594Z" fill="#002D6E"/>
<path d="M33.8761 26.5523H37.3392C38.1413 26.5523 38.8527 26.7023 39.4735 27.0022C40.0943 27.3021 40.5756 27.7276 40.9173 28.2786C41.2591 28.8296 41.43 29.4748 41.43 30.2142C41.43 30.9535 41.2591 31.5987 40.9173 32.1497C40.5756 32.7007 40.0943 33.1263 39.4735 33.4261C38.8527 33.726 38.1413 33.876 37.3392 33.876H33.8761V26.5523ZM37.2555 32.223C37.8832 32.223 38.3854 32.0451 38.7621 31.6894C39.1457 31.3337 39.3375 30.8419 39.3375 30.2142C39.3375 29.5864 39.1457 29.0947 38.7621 28.739C38.3854 28.3832 37.8832 28.2054 37.2555 28.2054H35.9477V32.223H37.2555Z" fill="#002D6E"/>
<path d="M42.4258 28.2052H44.4136V33.8759H42.4258V28.2052ZM43.4197 27.5775C43.057 27.5775 42.7641 27.4764 42.5409 27.2741C42.3176 27.0718 42.2061 26.8207 42.2061 26.5208C42.2061 26.2209 42.3176 25.9698 42.5409 25.7675C42.7641 25.5652 43.057 25.4641 43.4197 25.4641C43.7824 25.4641 44.0753 25.5617 44.2986 25.757C44.5218 25.9453 44.6334 26.1895 44.6334 26.4894C44.6334 26.8032 44.5218 27.0648 44.2986 27.2741C44.0753 27.4764 43.7824 27.5775 43.4197 27.5775Z" fill="#002D6E"/>
<path d="M51.8051 28.2053V32.8402C51.8051 33.8934 51.5192 34.6816 50.9472 35.2047C50.3752 35.7348 49.5522 35.9999 48.478 35.9999C47.9201 35.9999 47.397 35.9371 46.9086 35.8115C46.4204 35.686 46.0054 35.5012 45.6636 35.257L46.3855 33.8655C46.6157 34.0538 46.9052 34.2003 47.2539 34.3049C47.6096 34.4165 47.9584 34.4723 48.3002 34.4723C48.8233 34.4723 49.207 34.3573 49.451 34.1271C49.6952 33.8969 49.8172 33.5552 49.8172 33.1018V32.9134C49.4336 33.3598 48.8722 33.583 48.1328 33.583C47.6306 33.583 47.1668 33.4715 46.7412 33.2482C46.3158 33.0181 45.9775 32.6972 45.7264 32.2857C45.4753 31.8672 45.3497 31.3859 45.3497 30.8419C45.3497 30.3047 45.4753 29.8305 45.7264 29.419C45.9775 29.0005 46.3158 28.6796 46.7412 28.4564C47.1668 28.2262 47.6306 28.1111 48.1328 28.1111C48.9419 28.1111 49.5347 28.3727 49.9114 28.8958V28.2053H51.8051ZM48.6036 32.0032C48.9593 32.0032 49.2522 31.895 49.4824 31.6789C49.7196 31.4627 49.8381 31.1836 49.8381 30.8419C49.8381 30.5001 49.7231 30.2246 49.4929 30.0153C49.2627 29.7991 48.9663 29.691 48.6036 29.691C48.2409 29.691 47.941 29.7991 47.7038 30.0153C47.4736 30.2246 47.3585 30.5001 47.3585 30.8419C47.3585 31.1836 47.4771 31.4627 47.7143 31.6789C47.9515 31.895 48.2478 32.0032 48.6036 32.0032Z" fill="#002D6E"/>
<path d="M53.0824 28.2052H55.0702V33.8759H53.0824V28.2052ZM54.0763 27.5775C53.7136 27.5775 53.4207 27.4764 53.1974 27.2741C52.9742 27.0718 52.8626 26.8207 52.8626 26.5208C52.8626 26.2209 52.9742 25.9698 53.1974 25.7675C53.4207 25.5652 53.7136 25.4641 54.0763 25.4641C54.439 25.4641 54.7319 25.5617 54.9551 25.757C55.1784 25.9453 55.2899 26.1895 55.2899 26.4894C55.2899 26.8032 55.1784 27.0648 54.9551 27.2741C54.7319 27.4764 54.439 27.5775 54.0763 27.5775Z" fill="#002D6E"/>
<path d="M60.275 33.646C60.1076 33.7506 59.9019 33.8308 59.6577 33.8866C59.4206 33.9425 59.166 33.9703 58.894 33.9703C58.1547 33.9703 57.5862 33.789 57.1886 33.4263C56.791 33.0636 56.5922 32.523 56.5922 31.8046V29.9004H55.7657V28.4148H56.5922V26.9395H58.5801V28.4148H59.8775V29.9004H58.5801V31.7837C58.5801 31.986 58.6324 32.1463 58.737 32.2649C58.8487 32.3765 58.9952 32.4323 59.1765 32.4323C59.4066 32.4323 59.6089 32.3731 59.7833 32.2545L60.275 33.646Z" fill="#002D6E"/>
<path d="M63.4586 28.1111C64.4002 28.1111 65.1186 28.3273 65.6138 28.7598C66.109 29.1853 66.3567 29.841 66.3567 30.7268V33.876H64.5048V33.1436C64.2188 33.6946 63.6608 33.9701 62.8308 33.9701C62.3914 33.9701 62.0112 33.8934 61.6904 33.74C61.3695 33.5865 61.1254 33.3807 60.958 33.1227C60.7976 32.8576 60.7174 32.5577 60.7174 32.2229C60.7174 31.6858 60.9231 31.2708 61.3347 30.9779C61.7461 30.678 62.3809 30.528 63.2388 30.528H64.3688C64.3339 29.9281 63.9328 29.6282 63.1656 29.6282C62.8936 29.6282 62.618 29.6736 62.3391 29.7642C62.06 29.8479 61.8229 29.9665 61.6276 30.1199L60.958 28.7703C61.2719 28.561 61.652 28.4006 62.0984 28.289C62.5517 28.1704 63.0051 28.1111 63.4586 28.1111ZM63.3853 32.7146C63.6155 32.7146 63.8177 32.6588 63.9921 32.5472C64.1665 32.4357 64.292 32.2717 64.3688 32.0555V31.5638H63.5109C62.9319 31.5638 62.6425 31.7556 62.6425 32.1392C62.6425 32.3135 62.7087 32.4531 62.8413 32.5577C62.9738 32.6623 63.1551 32.7146 63.3853 32.7146Z" fill="#002D6E"/>
<path d="M67.6114 26.1128H69.5993V33.876H67.6114V26.1128Z" fill="#002D6E"/>
</svg>
