<svg width="135" height="48" viewBox="0 0 135 48" fill="none" xmlns="http://www.w3.org/2000/svg">
<path d="M89.6051 23.6106C89.0281 23.6106 88.4681 23.5393 87.925 23.3967C87.3822 23.2542 86.941 23.0641 86.6016 22.8266L87.2633 21.3402C87.5824 21.5506 87.9524 21.7204 88.3731 21.8491C88.7939 21.9782 89.208 22.0426 89.6152 22.0426C90.389 22.0426 90.7759 21.8491 90.7759 21.4623C90.7759 21.2587 90.6638 21.1094 90.4399 21.0143C90.2226 20.9127 89.8697 20.8074 89.3811 20.6988C88.8448 20.5834 88.3968 20.4611 88.0371 20.3323C87.6773 20.1964 87.3686 19.9827 87.1105 19.6909C86.8527 19.3989 86.7236 19.0052 86.7236 18.5099C86.7236 18.0755 86.8425 17.6853 87.08 17.339C87.3176 16.9861 87.6705 16.7078 88.1388 16.5041C88.6141 16.3005 89.1944 16.1987 89.8798 16.1987C90.3481 16.1987 90.8098 16.253 91.2645 16.3616C91.7192 16.4634 92.1193 16.6162 92.4655 16.8197L91.8449 18.3164C91.1662 17.9499 90.5077 17.7666 89.8697 17.7666C89.4692 17.7666 89.1774 17.8276 88.9941 17.9499C88.8109 18.0651 88.7192 18.2179 88.7192 18.4079C88.7192 18.5981 88.8278 18.7406 89.045 18.8356C89.2622 18.9307 89.6118 19.029 90.0937 19.1309C90.6367 19.2462 91.0846 19.3718 91.4376 19.5076C91.7973 19.6365 92.106 19.8469 92.3637 20.1388C92.6291 20.4239 92.7613 20.8141 92.7613 21.3098C92.7613 21.7373 92.6424 22.1242 92.4046 22.4702C92.1668 22.8164 91.8109 23.0947 91.3356 23.305C90.8606 23.5087 90.2837 23.6106 89.6051 23.6106Z" fill="#FF8000"/>
<path d="M100.789 17.8584C101.467 17.8584 102.008 18.062 102.408 18.4692C102.815 18.8767 103.019 19.4909 103.019 20.3121V23.4682H101.084V20.6277C101.084 20.2408 101.01 19.9558 100.86 19.7726C100.718 19.5893 100.513 19.4977 100.249 19.4977C99.957 19.4977 99.723 19.5995 99.5471 19.803C99.3702 20.0066 99.2817 20.3156 99.2817 20.7296V23.4682H97.3481V20.6277C97.3481 19.8742 97.0694 19.4977 96.513 19.4977C96.2143 19.4977 95.9765 19.5995 95.8006 19.803C95.6236 20.0066 95.5352 20.3156 95.5352 20.7296V23.4682H93.6006V17.9501H95.4439V18.5305C95.6474 18.3065 95.8881 18.1401 96.1667 18.0315C96.4521 17.9162 96.7603 17.8584 97.0932 17.8584C97.4803 17.8584 97.8265 17.9297 98.1318 18.0724C98.4371 18.2148 98.6844 18.4319 98.8746 18.7239C99.0915 18.4455 99.3673 18.2317 99.6993 18.0826C100.032 17.9332 100.395 17.8584 100.789 17.8584Z" fill="#FF8000"/>
<path d="M106.591 17.8584C107.507 17.8584 108.207 18.069 108.688 18.4898C109.17 18.9038 109.411 19.5418 109.411 20.4037V23.4682H107.609V22.7556C107.331 23.2917 106.788 23.5599 105.98 23.5599C105.552 23.5599 105.182 23.4851 104.87 23.336C104.558 23.1866 104.32 22.9864 104.158 22.7353C104.002 22.4772 103.924 22.1854 103.924 21.8595C103.924 21.3371 104.124 20.9332 104.524 20.648C104.924 20.3563 105.543 20.2103 106.377 20.2103H107.476C107.443 19.6266 107.052 19.3348 106.305 19.3348C106.041 19.3348 105.773 19.3789 105.502 19.467C105.23 19.5486 105 19.6638 104.809 19.8132L104.158 18.4999C104.463 18.2963 104.833 18.1401 105.268 18.0315C105.708 17.9162 106.149 17.8584 106.591 17.8584ZM106.519 22.3382C106.744 22.3382 106.941 22.2837 107.11 22.1752C107.279 22.0666 107.402 21.9072 107.476 21.6966V21.2182H106.642C106.078 21.2182 105.797 21.4049 105.797 21.7782C105.797 21.9479 105.861 22.0835 105.991 22.1854C106.119 22.2872 106.296 22.3382 106.519 22.3382Z" fill="#FF8000"/>
<path d="M112.475 18.6118C112.672 18.3608 112.927 18.1741 113.239 18.0519C113.558 17.923 113.921 17.8584 114.328 17.8584V19.5995C114.152 19.5791 114.006 19.5689 113.89 19.5689C113.477 19.5689 113.15 19.6808 112.914 19.905C112.683 20.1289 112.567 20.4715 112.567 20.9332V23.4682H110.633V17.9501H112.475V18.6118Z" fill="#FF8000"/>
<path d="M119.103 23.2438C118.941 23.3458 118.74 23.4237 118.502 23.478C118.272 23.5324 118.024 23.5595 117.759 23.5595C117.039 23.5595 116.487 23.383 116.1 23.03C115.713 22.677 115.52 22.1511 115.52 21.452V19.599H114.715V18.1533H115.52V16.7178H117.454V18.1533H118.716V19.599H117.454V21.4316C117.454 21.6284 117.505 21.7846 117.606 21.9C117.716 22.0086 117.857 22.0628 118.034 22.0628C118.258 22.0628 118.455 22.0051 118.625 21.8897L119.103 23.2438Z" fill="#FF8000"/>
<path d="M86.6045 26.9111H88.6203V32.4393H92.0212V34.0378H86.6045V26.9111Z" fill="#FF8000"/>
<path d="M99.2528 34.0378L99.2328 30.2607L97.4 33.3354H96.504L94.6816 30.3624V34.0378H92.8184V26.9111H94.4781L96.9824 31.0242L99.4259 26.9111H101.086L101.106 34.0378H99.2528Z" fill="#FF8000"/>
<path d="M105.037 34.1804C104.461 34.1804 103.9 34.1092 103.357 33.9666C102.814 33.824 102.373 33.6339 102.033 33.3964L102.695 31.91C103.015 32.1205 103.385 32.2902 103.805 32.419C104.226 32.548 104.64 32.6124 105.047 32.6124C105.821 32.6124 106.208 32.419 106.208 32.0321C106.208 31.8285 106.096 31.6793 105.872 31.5842C105.655 31.4825 105.302 31.3772 104.813 31.2687C104.277 31.1532 103.829 31.031 103.469 30.9021C103.11 30.7663 102.801 30.5526 102.543 30.2607C102.285 29.9687 102.156 29.5751 102.156 29.0797C102.156 28.6453 102.275 28.2551 102.513 27.9089C102.749 27.5559 103.103 27.2777 103.571 27.0741C104.046 26.8704 104.626 26.7686 105.312 26.7686C105.781 26.7686 106.242 26.8228 106.697 26.9315C107.151 27.0334 107.552 27.1859 107.898 27.3896L107.277 28.8863C106.599 28.5197 105.94 28.3364 105.302 28.3364C104.902 28.3364 104.61 28.3975 104.426 28.5197C104.243 28.635 104.151 28.7877 104.151 28.9779C104.151 29.1679 104.26 29.3105 104.478 29.4054C104.694 29.5005 105.044 29.5988 105.526 29.7007C106.069 29.816 106.517 29.9416 106.87 30.0775C107.229 30.2063 107.538 30.4167 107.796 30.7086C108.061 30.9937 108.194 31.3839 108.194 31.8796C108.194 32.3071 108.075 32.694 107.837 33.0401C107.599 33.3863 107.243 33.6645 106.768 33.8749C106.293 34.0785 105.716 34.1804 105.037 34.1804Z" fill="#FF8000"/>
<path fill-rule="evenodd" clip-rule="evenodd" d="M77.5664 15.8555H79.4809V34.0359C79.4809 34.0359 79.4809 34.0359 78.5236 34.0359C77.5664 34.0359 77.5664 34.0359 77.5664 34.0359V15.8555Z" fill="#FF8000"/>
<path d="M24.1814 22.0476C23.7179 21.6489 23.2103 21.3327 22.6778 21.0968C22.8868 20.9228 23.0845 20.7314 23.2687 20.5208C25.1461 18.3737 24.9139 15.1226 22.7499 13.2599C21.7667 12.4138 20.5555 12 19.3497 12.0008L12 12V33.8761H26.267V26.6286C26.279 24.9342 25.5721 23.2455 24.1814 22.0476ZM23.2407 32.1604H20.6467V24.8683H17.6204V32.1604H15.0263V13.7158H18.0526C19.6643 13.7158 21.0182 14.8096 21.4024 16.2894H18.485V18.0052H21.4008C21.0173 19.4843 19.666 20.5772 18.0559 20.5789H18.0495H16.7557V22.2946H18.9173C19.9221 22.2939 20.9317 22.6394 21.7508 23.344C22.7355 24.1916 23.2391 25.3847 23.2399 26.584H23.2415L23.2407 32.1604Z" fill="#002D6E"/>
<path d="M40.844 16.0898V23.4136H38.7724V20.5573H35.9475V23.4136H33.876V16.0898H35.9475V18.8415H38.7724V16.0898H40.844Z" fill="#002D6E"/>
<path d="M44.8794 23.56C44.2866 23.56 43.7111 23.4868 43.1531 23.3403C42.5951 23.1939 42.1418 22.9986 41.793 22.7544L42.473 21.2269C42.8009 21.4431 43.181 21.6175 43.6134 21.75C44.0459 21.8825 44.4714 21.9488 44.8899 21.9488C45.685 21.9488 46.0826 21.75 46.0826 21.3525C46.0826 21.1432 45.9675 20.9898 45.7373 20.8921C45.5141 20.7875 45.1514 20.6793 44.6492 20.5678C44.0982 20.4492 43.6379 20.3236 43.2682 20.1911C42.8985 20.0516 42.5812 19.8319 42.3161 19.532C42.051 19.2321 41.9185 18.8275 41.9185 18.3183C41.9185 17.872 42.0406 17.4709 42.2847 17.1152C42.5289 16.7525 42.8915 16.4665 43.3728 16.2572C43.861 16.048 44.4574 15.9434 45.1619 15.9434C45.6432 15.9434 46.1175 15.9992 46.5848 16.1108C47.0521 16.2154 47.4636 16.3723 47.8194 16.5816L47.1812 18.1196C46.4837 17.7429 45.8071 17.5546 45.1514 17.5546C44.7399 17.5546 44.44 17.6174 44.2517 17.7429C44.0633 17.8615 43.9692 18.0185 43.9692 18.2137C43.9692 18.409 44.0807 18.5555 44.304 18.6531C44.5272 18.7508 44.8863 18.8519 45.3816 18.9566C45.9396 19.0752 46.4 19.2041 46.7627 19.3437C47.1324 19.4762 47.4497 19.6924 47.7147 19.9923C47.9868 20.2853 48.1228 20.6864 48.1228 21.1955C48.1228 21.635 48.0008 22.0325 47.7566 22.3883C47.5124 22.744 47.1463 23.03 46.658 23.2462C46.1698 23.4554 45.5769 23.56 44.8794 23.56Z" fill="#002D6E"/>
<path d="M54.959 21.8128V23.4136H49.0791V16.0898H54.823V17.6906H51.1297V18.9252H54.3836V20.4736H51.1297V21.8128H54.959Z" fill="#002D6E"/>
<path d="M33.876 26.5522H37.3391C38.1411 26.5522 38.8526 26.7022 39.4734 27.0021C40.0942 27.302 40.5755 27.7276 40.9172 28.2786C41.259 28.8296 41.4299 29.4748 41.4299 30.2141C41.4299 30.9534 41.259 31.5987 40.9172 32.1497C40.5755 32.7007 40.0942 33.1262 39.4734 33.4261C38.8526 33.726 38.1411 33.876 37.3391 33.876H33.876V26.5522ZM37.2554 32.2229C37.8831 32.2229 38.3853 32.0451 38.762 31.6893C39.1455 31.3336 39.3374 30.8419 39.3374 30.2141C39.3374 29.5864 39.1455 29.0946 38.762 28.7389C38.3853 28.3832 37.8831 28.2053 37.2554 28.2053H35.9475V32.2229H37.2554Z" fill="#002D6E"/>
<path d="M42.4258 28.2055H44.4136V33.8762H42.4258V28.2055ZM43.4197 27.5778C43.057 27.5778 42.7641 27.4767 42.5409 27.2744C42.3176 27.0721 42.2061 26.821 42.2061 26.5211C42.2061 26.2212 42.3176 25.9701 42.5409 25.7678C42.7641 25.5655 43.057 25.4644 43.4197 25.4644C43.7824 25.4644 44.0753 25.562 44.2986 25.7573C44.5218 25.9456 44.6334 26.1898 44.6334 26.4897C44.6334 26.8036 44.5218 27.0651 44.2986 27.2744C44.0753 27.4767 43.7824 27.5778 43.4197 27.5778Z" fill="#002D6E"/>
<path d="M51.805 28.2055V32.8404C51.805 33.8936 51.5191 34.6818 50.947 35.2049C50.3751 35.735 49.5521 36 48.4779 36C47.92 36 47.3968 35.9373 46.9085 35.8117C46.4203 35.6862 46.0053 35.5014 45.6635 35.2572L46.3854 33.8657C46.6156 34.054 46.9051 34.2005 47.2538 34.3051C47.6095 34.4167 47.9583 34.4725 48.3 34.4725C48.8232 34.4725 49.2068 34.3574 49.4509 34.1273C49.6951 33.8971 49.8171 33.5553 49.8171 33.1019V32.9136C49.4335 33.36 48.872 33.5832 48.1326 33.5832C47.6304 33.5832 47.1667 33.4716 46.7411 33.2484C46.3157 33.0182 45.9774 32.6974 45.7263 32.2859C45.4752 31.8674 45.3496 31.3861 45.3496 30.842C45.3496 30.3049 45.4752 29.8307 45.7263 29.4191C45.9774 29.0006 46.3157 28.6798 46.7411 28.4566C47.1667 28.2264 47.6304 28.1113 48.1326 28.1113C48.9418 28.1113 49.5346 28.3729 49.9113 28.896V28.2055H51.805ZM48.6034 32.0034C48.9592 32.0034 49.2521 31.8952 49.4823 31.679C49.7195 31.4628 49.838 31.1838 49.838 30.842C49.838 30.5003 49.7229 30.2248 49.4928 30.0155C49.2626 29.7993 48.9662 29.6912 48.6034 29.6912C48.2408 29.6912 47.9409 29.7993 47.7037 30.0155C47.4735 30.2248 47.3584 30.5003 47.3584 30.842C47.3584 31.1838 47.477 31.4628 47.7141 31.679C47.9513 31.8952 48.2477 32.0034 48.6034 32.0034Z" fill="#002D6E"/>
<path d="M53.082 28.2055H55.0699V33.8762H53.082V28.2055ZM54.076 27.5778C53.7133 27.5778 53.4203 27.4767 53.1971 27.2744C52.9739 27.0721 52.8623 26.821 52.8623 26.5211C52.8623 26.2212 52.9739 25.9701 53.1971 25.7678C53.4203 25.5655 53.7133 25.4644 54.076 25.4644C54.4386 25.4644 54.7316 25.562 54.9548 25.7573C55.178 25.9456 55.2896 26.1898 55.2896 26.4897C55.2896 26.8036 55.178 27.0651 54.9548 27.2744C54.7316 27.4767 54.4386 27.5778 54.076 27.5778Z" fill="#002D6E"/>
<path d="M60.275 33.6459C60.1076 33.7505 59.9018 33.8307 59.6577 33.8865C59.4206 33.9424 59.1659 33.9702 58.8939 33.9702C58.1546 33.9702 57.5861 33.7889 57.1885 33.4262C56.791 33.0635 56.5922 32.5229 56.5922 31.8045V29.9003H55.7656V28.4147H56.5922V26.9395H58.58V28.4147H59.8774V29.9003H58.58V31.7836C58.58 31.9859 58.6324 32.1463 58.737 32.2649C58.8486 32.3764 58.9951 32.4323 59.1764 32.4323C59.4066 32.4323 59.6089 32.373 59.7832 32.2544L60.275 33.6459Z" fill="#002D6E"/>
<path d="M63.4589 28.1113C64.4006 28.1113 65.119 28.3275 65.6142 28.76C66.1094 29.1854 66.3571 29.8412 66.3571 30.7269V33.8762H64.5052V33.1438C64.2192 33.6948 63.6612 33.9703 62.8312 33.9703C62.3918 33.9703 62.0116 33.8936 61.6908 33.7401C61.3699 33.5867 61.1258 33.3809 60.9584 33.1229C60.798 32.8578 60.7178 32.5579 60.7178 32.2231C60.7178 31.686 60.9235 31.271 61.3351 30.978C61.7465 30.6782 62.3813 30.5282 63.2392 30.5282H64.3692C64.3343 29.9283 63.9332 29.6284 63.166 29.6284C62.894 29.6284 62.6184 29.6738 62.3395 29.7644C62.0604 29.8481 61.8233 29.9667 61.628 30.1201L60.9584 28.7705C61.2723 28.5612 61.6524 28.4008 62.0988 28.2892C62.5521 28.1706 63.0055 28.1113 63.4589 28.1113ZM63.3857 32.7148C63.6159 32.7148 63.8181 32.659 63.9925 32.5474C64.1669 32.4359 64.2924 32.2719 64.3692 32.0557V31.5639H63.5113C62.9323 31.5639 62.6429 31.7558 62.6429 32.1394C62.6429 32.3137 62.7091 32.4533 62.8417 32.5579C62.9742 32.6625 63.1555 32.7148 63.3857 32.7148Z" fill="#002D6E"/>
<path d="M67.6113 26.1128H69.5992V33.876H67.6113V26.1128Z" fill="#002D6E"/>
</svg>
