<svg width="24" height="24" viewBox="0 0 24 24" fill="none" xmlns="http://www.w3.org/2000/svg">
<path d="M21 19.5H19V21H21V19.5Z" fill="currentColor"/>
<path d="M17 19.5H10V21H17V19.5Z" fill="currentColor"/>
<path d="M21 5.83168C20.9996 5.27229 20.8333 4.72557 20.5224 4.26058C20.2114 3.7956 19.7695 3.43322 19.2527 3.2192C18.7359 3.00519 18.1672 2.94915 17.6185 3.05816C17.0698 3.16718 16.5658 3.43635 16.17 3.83168L5 15.0017L3 20.0017L4 21.0017L9 19.0017L20.17 7.83168C20.7009 7.30141 20.9994 6.58202 21 5.83168ZM6.15 16.1517L7.85 17.8517L5 19.0017L6.15 16.1517ZM19.15 6.77168L18.98 6.94168L17.06 5.06168L17.23 4.89168C17.352 4.76188 17.4988 4.65791 17.6618 4.58594C17.8247 4.51396 18.0004 4.47545 18.1785 4.47269C18.3566 4.46993 18.5335 4.50297 18.6986 4.56986C18.8637 4.63675 19.0137 4.73612 19.1396 4.86208C19.2656 4.98803 19.3649 5.13801 19.4318 5.3031C19.4987 5.46819 19.5318 5.64504 19.529 5.82315C19.5262 6.00126 19.4877 6.17699 19.4157 6.33993C19.3438 6.50287 19.2398 6.64969 19.11 6.77168H19.15Z" fill="currentColor"/>
</svg>
