<svg width="24" height="24" viewBox="0 0 24 24" fill="none" xmlns="http://www.w3.org/2000/svg">
<path d="M16.84 14.8444C17.5973 13.707 18.0009 12.3709 18 11.0044C18.0021 9.44648 17.4844 7.93238 16.5289 6.70188C15.5733 5.47138 14.2347 4.59479 12.7248 4.21093C11.2149 3.82707 9.62007 3.95787 8.1929 4.58262C6.76573 5.20738 5.58776 6.29037 4.84552 7.66012C4.10328 9.02987 3.83919 10.6081 4.09508 12.1449C4.35096 13.6816 5.11219 15.0891 6.25823 16.1444C7.40426 17.1998 8.8696 17.8426 10.4222 17.9712C11.9748 18.0998 13.526 17.7068 14.83 16.8544L18 20.0044L20 18.0044L16.84 14.8444ZM6 11.0044C6 10.0155 6.29325 9.04879 6.84266 8.22655C7.39206 7.4043 8.17296 6.76344 9.08659 6.385C10.0002 6.00656 11.0056 5.90755 11.9755 6.10047C12.9454 6.2934 13.8363 6.7696 14.5355 7.46887C15.2348 8.16813 15.711 9.05904 15.9039 10.0289C16.0969 10.9989 15.9978 12.0042 15.6194 12.9178C15.241 13.8314 14.6001 14.6123 13.7779 15.1617C12.9556 15.7112 11.9889 16.0044 11 16.0044C9.67392 16.0044 8.40215 15.4776 7.46447 14.5399C6.52679 13.6023 6 12.3305 6 11.0044Z" fill="currentColor"/>
</svg>
