<svg width="19" height="20" viewBox="0 0 19 20" fill="none" xmlns="http://www.w3.org/2000/svg">
<rect width="19" height="20" rx="9.5" fill="#D82E2E"/>
<g clip-path="url(#clip0_22849_36444)">
<path d="M10.0453 11.552H8.9533L8.7253 5.996H10.2613L10.0453 11.552ZM10.0813 13.88C9.9133 14.04 9.7173 14.12 9.4933 14.12C9.2693 14.12 9.0733 14.04 8.9053 13.88C8.7453 13.712 8.6653 13.516 8.6653 13.292C8.6653 13.06 8.7453 12.864 8.9053 12.704C9.0733 12.536 9.2693 12.452 9.4933 12.452C9.7173 12.452 9.9133 12.536 10.0813 12.704C10.2493 12.864 10.3333 13.06 10.3333 13.292C10.3333 13.516 10.2493 13.712 10.0813 13.88Z" fill="white"/>
</g>
<defs>
<clipPath id="clip0_22849_36444">
<rect width="3" height="16" fill="white" transform="translate(8 2)"/>
</clipPath>
</defs>
</svg>
