<svg width="24" height="24" viewBox="0 0 24 24" fill="none" xmlns="http://www.w3.org/2000/svg">
<path d="M15.225 10.7251L11.25 14.6851L8.775 12.2251C8.70606 12.1561 8.62421 12.1014 8.53413 12.0641C8.44405 12.0268 8.3475 12.0076 8.25 12.0076C8.1525 12.0076 8.05595 12.0268 7.96587 12.0641C7.87579 12.1014 7.79394 12.1561 7.725 12.2251C7.65606 12.294 7.60137 12.3758 7.56405 12.4659C7.52674 12.556 7.50754 12.6526 7.50754 12.7501C7.50754 12.8476 7.52674 12.9441 7.56405 13.0342C7.60137 13.1243 7.65606 13.2061 7.725 13.2751L10.725 16.2751C10.7923 16.3468 10.8737 16.404 10.964 16.4431C11.0543 16.4822 11.1516 16.5023 11.25 16.5023C11.3484 16.5023 11.4457 16.4822 11.536 16.4431C11.6263 16.404 11.7077 16.3468 11.775 16.2751L16.275 11.7751C16.4142 11.6358 16.4925 11.447 16.4925 11.2501C16.4925 11.0531 16.4142 10.8643 16.275 10.7251C16.1358 10.5858 15.9469 10.5076 15.75 10.5076C15.5531 10.5076 15.3642 10.5858 15.225 10.7251Z" fill="currentColor"/>
<path d="M16.5 4.50006C16.5 4.10223 16.342 3.7207 16.0607 3.4394C15.7794 3.15809 15.3978 3.00006 15 3.00006H14.595C14.3313 2.54544 13.9528 2.16808 13.4973 1.90576C13.0419 1.64344 12.5256 1.50537 12 1.50537C11.4744 1.50537 10.9581 1.64344 10.5027 1.90576C10.0472 2.16808 9.66872 2.54544 9.405 3.00006H9C8.60218 3.00006 8.22064 3.15809 7.93934 3.4394C7.65804 3.7207 7.5 4.10223 7.5 4.50006C6.70435 4.50006 5.94129 4.81613 5.37868 5.37873C4.81607 5.94134 4.5 6.70441 4.5 7.50006V18.0001C4.5 18.7957 4.81607 19.5588 5.37868 20.1214C5.94129 20.684 6.70435 21.0001 7.5 21.0001H16.5C17.2956 21.0001 18.0587 20.684 18.6213 20.1214C19.1839 19.5588 19.5 18.7957 19.5 18.0001V7.50006C19.5 6.70441 19.1839 5.94134 18.6213 5.37873C18.0587 4.81613 17.2956 4.50006 16.5 4.50006ZM12.75 3.75006C12.75 3.89839 12.706 4.0434 12.6236 4.16673C12.5412 4.29007 12.4241 4.3862 12.287 4.44297C12.15 4.49973 11.9992 4.51458 11.8537 4.48564C11.7082 4.45671 11.5746 4.38527 11.4697 4.28039C11.3648 4.1755 11.2933 4.04186 11.2644 3.89637C11.2355 3.75089 11.2503 3.60009 11.3071 3.46304C11.3639 3.326 11.46 3.20886 11.5833 3.12645C11.7067 3.04404 11.8517 3.00006 12 3.00006C12.1989 3.00006 12.3897 3.07907 12.5303 3.21973C12.671 3.36038 12.75 3.55114 12.75 3.75006ZM18 18.0001C18 18.3979 17.842 18.7794 17.5607 19.0607C17.2794 19.342 16.8978 19.5001 16.5 19.5001H7.5C7.10218 19.5001 6.72064 19.342 6.43934 19.0607C6.15804 18.7794 6 18.3979 6 18.0001V7.50006C6 7.10223 6.15804 6.7207 6.43934 6.4394C6.72064 6.15809 7.10218 6.00006 7.5 6.00006V6.75006C7.5 6.94897 7.57902 7.13973 7.71967 7.28039C7.86032 7.42104 8.05109 7.50006 8.25 7.50006H15.75C15.9489 7.50006 16.1397 7.42104 16.2803 7.28039C16.421 7.13973 16.5 6.94897 16.5 6.75006V6.00006C16.8978 6.00006 17.2794 6.15809 17.5607 6.4394C17.842 6.7207 18 7.10223 18 7.50006V18.0001Z" fill="currentColor"/>
</svg>
